<?xml version="1.0" encoding="utf-8"?>
<!-- Generator: Adobe Illustrator 15.0.0, SVG Export Plug-In . SVG Version: 6.00 Build 0)  -->
<!DOCTYPE svg PUBLIC "-//W3C//DTD SVG 1.1//EN" "http://www.w3.org/Graphics/SVG/1.1/DTD/svg11.dtd">
<svg version="1.1" xmlns="http://www.w3.org/2000/svg" xmlns:xlink="http://www.w3.org/1999/xlink" x="0px" y="0px" width="504px"
	 height="175.613px" viewBox="0 0 144 50.175" enable-background="new 0 0 144 50.175" xml:space="preserve">
<g id="Layer_1">
	<g>
		<path fill="#FFFFFF" d="M0.288,14.043h0.581v1.424c0,0.736,0.189,1.419,0.567,2.049c0.377,0.63,0.891,1.187,1.54,1.671
			c0.649,0.484,1.409,0.862,2.281,1.133c0.872,0.271,1.801,0.407,2.79,0.407c0.852,0,1.666-0.106,2.441-0.32
			c0.774-0.213,1.472-0.503,2.092-0.872c0.62-0.368,1.143-0.804,1.569-1.308c0.426-0.503,0.727-1.056,0.901-1.656L3.717,10.847
			c-0.969-0.523-1.734-1.191-2.295-2.005C0.859,8.028,0.579,7.137,0.579,6.168c0-0.794,0.198-1.54,0.596-2.237
			c0.397-0.697,0.935-1.303,1.613-1.816c0.678-0.513,1.472-0.92,2.383-1.22c0.91-0.3,1.879-0.451,2.906-0.451
			c0.775,0,1.521,0.087,2.238,0.262c0.716,0.174,1.375,0.421,1.976,0.741c0.6,0.319,1.133,0.697,1.598,1.133
			c0.465,0.436,0.843,0.915,1.133,1.438V0.676h0.581v5.812h-0.581V5.791c-0.078-0.601-0.32-1.187-0.727-1.758
			c-0.407-0.571-0.93-1.08-1.569-1.525c-0.639-0.445-1.366-0.804-2.179-1.075C9.732,1.161,8.879,1.025,7.989,1.025
			c-0.737,0-1.438,0.083-2.107,0.247C5.213,1.437,4.604,1.664,4.051,1.955S3.01,2.594,2.583,3C2.157,3.408,1.828,3.854,1.596,4.337
			l11.333,5.695c0.949,0.679,1.685,1.473,2.208,2.383c0.523,0.911,0.746,1.918,0.668,3.022c0,0.794-0.203,1.545-0.61,2.252
			c-0.407,0.708-0.964,1.327-1.671,1.86c-0.708,0.533-1.531,0.954-2.47,1.264c-0.94,0.31-1.942,0.465-3.007,0.465
			c-0.814,0-1.589-0.092-2.325-0.276c-0.736-0.184-1.415-0.436-2.034-0.755c-0.62-0.32-1.172-0.702-1.656-1.148
			c-0.484-0.445-0.872-0.93-1.163-1.453v3.371H0.288V14.043z"/>
		<path fill="#FFFFFF" d="M31.235,0.676h15.692v4.068h-0.582V1.257h-5.23v19.179h2.325v0.581h-8.718v-0.581h2.325V1.257h-5.23v3.487
			h-0.581V0.676z"/>
		<path fill="#FFFFFF" d="M76.712,0.676h4.824v0.582h-2.063l-5.434,8.863v10.316h2.324v0.581h-8.717v-0.581h2.325v-9.444
			l-5.58-9.734h-2.063V0.676h9.008v0.582h-2.238l4.679,8.107l4.969-8.107h-2.034V0.676z"/>
		<path fill="#FFFFFF" d="M96.937,20.436h2.324V1.257h-2.324V0.676h8.718v0.582h-2.325v19.179h8.718v-5.23h0.581v5.812H96.937
			V20.436z"/>
		<path fill="#FFFFFF" d="M128.029,20.436h2.324V1.257h-2.324V0.676h15.691v5.812h-0.581v-5.23h-8.718v9.299h5.23V7.795h0.582v6.393
			h-0.582v-3.051h-5.23v9.299h8.718v-5.23h0.581v5.812h-15.691V20.436z"/>
	</g>
	<g>
	</g>
	<g>
	</g>
</g>
<g id="c">
	<g>
		<path fill="#FFFFFF" d="M17.354,34.142c-0.813-1.375-1.879-2.475-3.196-3.298c-1.318-0.823-2.771-1.235-4.359-1.235
			c-0.93,0-1.807,0.145-2.63,0.436c-0.824,0.291-1.594,0.688-2.31,1.191v16.505c0.716,0.523,1.486,0.926,2.31,1.206
			c0.823,0.281,1.7,0.421,2.63,0.421c0.891,0,1.748-0.135,2.572-0.406c0.823-0.271,1.588-0.654,2.295-1.148
			c0.707-0.493,1.337-1.089,1.889-1.787c0.552-0.697,1.012-1.462,1.38-2.295h0.61c-0.368,0.91-0.848,1.748-1.438,2.514
			s-1.264,1.424-2.02,1.976c-0.755,0.552-1.583,0.979-2.484,1.278c-0.901,0.301-1.836,0.451-2.804,0.451
			c-1.317,0-2.557-0.276-3.72-0.828c-1.162-0.553-2.179-1.298-3.051-2.238c-0.872-0.939-1.56-2.043-2.063-3.313
			c-0.504-1.269-0.755-2.63-0.755-4.083c0-1.453,0.251-2.813,0.755-4.083c0.504-1.269,1.191-2.373,2.063-3.313
			c0.872-0.939,1.889-1.686,3.051-2.238c1.163-0.552,2.402-0.828,3.72-0.828c1.53,0,2.949,0.369,4.257,1.104
			c1.308,0.736,2.407,1.725,3.298,2.964v-3.778h0.581v5.841h-0.581V34.142z"/>
		<path fill="#FFFFFF" d="M21.451,39.488c0-1.453,0.251-2.813,0.755-4.083c0.504-1.269,1.191-2.373,2.063-3.313
			c0.872-0.939,1.889-1.686,3.051-2.238c1.163-0.552,2.402-0.828,3.72-0.828s2.557,0.276,3.72,0.828
			c1.162,0.552,2.179,1.298,3.051,2.238c0.872,0.94,1.56,2.044,2.063,3.313c0.503,1.269,0.755,2.63,0.755,4.083
			c0,1.453-0.252,2.814-0.755,4.083c-0.504,1.27-1.191,2.373-2.063,3.313c-0.872,0.94-1.889,1.686-3.051,2.238
			c-1.163,0.552-2.402,0.828-3.72,0.828s-2.557-0.276-3.72-0.828c-1.162-0.553-2.179-1.298-3.051-2.238
			c-0.872-0.939-1.56-2.043-2.063-3.313C21.702,42.303,21.451,40.941,21.451,39.488z M31.04,29.609c-0.93,0-1.807,0.145-2.63,0.436
			c-0.824,0.291-1.594,0.688-2.31,1.191v16.505c0.716,0.523,1.486,0.926,2.31,1.206c0.823,0.281,1.7,0.421,2.63,0.421
			s1.806-0.14,2.63-0.421c0.823-0.28,1.593-0.683,2.31-1.206V31.236c-0.717-0.503-1.487-0.901-2.31-1.191
			C32.846,29.754,31.97,29.609,31.04,29.609z"/>
		<path fill="#FFFFFF" d="M43.535,49.078h2.325V29.899h-2.325v-0.582h6.015l10.839,19.295V29.899h-2.325v-0.582h4.94v0.582H60.97
			v19.76h-4.126L46.441,31.091v17.987h2.325v0.581h-5.23V49.078z"/>
		<path fill="#FFFFFF" d="M65.91,49.078h2.325V29.899H65.91v-0.582h6.015l10.839,19.295V29.899h-2.325v-0.582h4.94v0.582h-2.034
			v19.76h-4.127L68.816,31.091v17.987h2.325v0.581h-5.23V49.078z"/>
		<path fill="#FFFFFF" d="M88.285,49.078h2.324V29.899h-2.324v-0.582h15.691v5.812h-0.581v-5.23h-8.718v9.299h5.23v-2.761h0.582
			v6.393h-0.582v-3.051h-5.23v9.299h8.718v-5.23h0.581v5.812H88.285V49.078z"/>
		<path fill="#FFFFFF" d="M124.026,34.142c-0.813-1.375-1.879-2.475-3.196-3.298c-1.317-0.823-2.771-1.235-4.358-1.235
			c-0.931,0-1.807,0.145-2.63,0.436c-0.824,0.291-1.594,0.688-2.311,1.191v16.505c0.717,0.523,1.486,0.926,2.311,1.206
			c0.823,0.281,1.699,0.421,2.63,0.421c0.891,0,1.748-0.135,2.571-0.406s1.588-0.654,2.296-1.148
			c0.707-0.493,1.336-1.089,1.889-1.787c0.552-0.697,1.012-1.462,1.38-2.295h0.61c-0.368,0.91-0.848,1.748-1.438,2.514
			s-1.264,1.424-2.02,1.976s-1.584,0.979-2.484,1.278c-0.9,0.301-1.836,0.451-2.804,0.451c-1.318,0-2.558-0.276-3.72-0.828
			c-1.163-0.553-2.18-1.298-3.052-2.238c-0.871-0.939-1.56-2.043-2.063-3.313c-0.504-1.269-0.756-2.63-0.756-4.083
			c0-1.453,0.252-2.813,0.756-4.083c0.503-1.269,1.191-2.373,2.063-3.313c0.872-0.939,1.889-1.686,3.052-2.238
			c1.162-0.552,2.401-0.828,3.72-0.828c1.529,0,2.949,0.369,4.257,1.104c1.308,0.736,2.406,1.725,3.298,2.964v-3.778h0.581v5.841
			h-0.581V34.142z"/>
		<path fill="#FFFFFF" d="M128.124,29.318h15.691v4.068h-0.581v-3.487h-5.23v19.179h2.325v0.581h-8.718v-0.581h2.324V29.899h-5.23
			v3.487h-0.581V29.318z"/>
	</g>
</g>
</svg>
